
<svg width="24" height="24" viewBox="0 0 24 24" fill="none" xmlns="http://www.w3.org/2000/svg">
  <path d="M14 8H10M12 16V12M22 12C22 17.5228 17.5228 22 12 22C6.47715 22 2 17.5228 2 12C2 6.47715 6.47715 2 12 2C17.5228 2 22 6.47715 22 12Z" stroke="currentColor" stroke-width="2" stroke-linecap="round" stroke-linejoin="round"/>
  <path d="M12 8C13.1046 8 14 7.10457 14 6C14 4.89543 13.1046 4 12 4C10.8954 4 10 4.89543 10 6C10 7.10457 10.8954 8 12 8Z" fill="currentColor"/>
  <path d="M6 13C7.10457 13 8 12.1046 8 11C8 9.89543 7.10457 9 6 9C4.89543 9 4 9.89543 4 11C4 12.1046 4.89543 13 6 13Z" fill="currentColor"/>
  <path d="M18 13C19.1046 13 20 12.1046 20 11C20 9.89543 19.1046 9 18 9C16.8954 9 16 9.89543 16 11C16 12.1046 16.8954 13 18 13Z" fill="currentColor"/>
  <path d="M12 20C13.1046 20 14 19.1046 14 18C14 16.8954 13.1046 16 12 16C10.8954 16 10 16.8954 10 18C10 19.1046 10.8954 20 12 20Z" fill="currentColor"/>
</svg>
